<mxfile host="65bd71144e">
    <diagram id="bLatDRlu8NSG5QHOMVHu" name="Exercise1">
        <mxGraphModel dx="1082" dy="560" grid="1" gridSize="10" guides="1" tooltips="1" connect="1" arrows="1" fold="1" page="1" pageScale="1" pageWidth="850" pageHeight="1100" math="0" shadow="0">
            <root>
                <mxCell id="0"/>
                <mxCell id="1" parent="0"/>
                <mxCell id="4" style="edgeStyle=none;html=1;" edge="1" parent="1" source="2" target="3">
                    <mxGeometry relative="1" as="geometry"/>
                </mxCell>
                <mxCell id="8" style="edgeStyle=none;html=1;entryX=1;entryY=0.5;entryDx=0;entryDy=0;" edge="1" parent="1" source="2" target="5">
                    <mxGeometry relative="1" as="geometry"/>
                </mxCell>
                <mxCell id="2" value="User" style="rounded=0;whiteSpace=wrap;html=1;fillColor=#081D06;" vertex="1" parent="1">
                    <mxGeometry x="370" y="200" width="120" height="60" as="geometry"/>
                </mxCell>
                <mxCell id="3" value="Email" style="ellipse;whiteSpace=wrap;html=1;fillColor=#07051D;" vertex="1" parent="1">
                    <mxGeometry x="370" y="340" width="120" height="80" as="geometry"/>
                </mxCell>
                <mxCell id="5" value="Password" style="triangle;whiteSpace=wrap;html=1;rotation=-90;fillColor=#1D050B;" vertex="1" parent="1">
                    <mxGeometry x="620" y="230" width="80" height="80" as="geometry"/>
                </mxCell>
            </root>
        </mxGraphModel>
    </diagram>
    <diagram id="KV1-XNBCIYXjns-FXti3" name="Exercise2">
        <mxGraphModel dx="1082" dy="560" grid="1" gridSize="10" guides="1" tooltips="1" connect="1" arrows="1" fold="1" page="1" pageScale="1" pageWidth="850" pageHeight="1100" math="0" shadow="0">
            <root>
                <mxCell id="0"/>
                <mxCell id="1" parent="0"/>
                <mxCell id="DtydLyBDtzMeIutkfusV-10" style="edgeStyle=orthogonalEdgeStyle;html=1;entryX=0.5;entryY=1;entryDx=0;entryDy=0;" edge="1" parent="1" source="DtydLyBDtzMeIutkfusV-1" target="DtydLyBDtzMeIutkfusV-2">
                    <mxGeometry relative="1" as="geometry"/>
                </mxCell>
                <mxCell id="DtydLyBDtzMeIutkfusV-14" style="edgeStyle=orthogonalEdgeStyle;html=1;entryX=0.5;entryY=0;entryDx=0;entryDy=0;" edge="1" parent="1" source="DtydLyBDtzMeIutkfusV-1" target="DtydLyBDtzMeIutkfusV-7">
                    <mxGeometry relative="1" as="geometry"/>
                </mxCell>
                <mxCell id="DtydLyBDtzMeIutkfusV-15" style="edgeStyle=orthogonalEdgeStyle;html=1;entryX=0.5;entryY=0;entryDx=0;entryDy=0;" edge="1" parent="1" source="DtydLyBDtzMeIutkfusV-1" target="DtydLyBDtzMeIutkfusV-3">
                    <mxGeometry relative="1" as="geometry"/>
                </mxCell>
                <mxCell id="DtydLyBDtzMeIutkfusV-1" value="Course" style="rounded=0;whiteSpace=wrap;html=1;fillColor=#1D050B;" vertex="1" parent="1">
                    <mxGeometry x="370" y="230" width="120" height="50" as="geometry"/>
                </mxCell>
                <mxCell id="DtydLyBDtzMeIutkfusV-2" value="Course Number" style="ellipse;whiteSpace=wrap;html=1;fillColor=#1D050B;" vertex="1" parent="1">
                    <mxGeometry x="260" y="60" width="120" height="80" as="geometry"/>
                </mxCell>
                <mxCell id="DtydLyBDtzMeIutkfusV-3" value="Dept Name" style="ellipse;whiteSpace=wrap;html=1;fillColor=#1D050B;" vertex="1" parent="1">
                    <mxGeometry x="60" y="220" width="120" height="80" as="geometry"/>
                </mxCell>
                <mxCell id="DtydLyBDtzMeIutkfusV-16" style="edgeStyle=orthogonalEdgeStyle;html=1;entryX=0.25;entryY=1;entryDx=0;entryDy=0;" edge="1" parent="1" source="DtydLyBDtzMeIutkfusV-4" target="DtydLyBDtzMeIutkfusV-1">
                    <mxGeometry relative="1" as="geometry"/>
                </mxCell>
                <mxCell id="DtydLyBDtzMeIutkfusV-4" value="start date" style="ellipse;whiteSpace=wrap;html=1;fillColor=#1D050B;" vertex="1" parent="1">
                    <mxGeometry x="260" y="350" width="120" height="80" as="geometry"/>
                </mxCell>
                <mxCell id="DtydLyBDtzMeIutkfusV-17" style="edgeStyle=orthogonalEdgeStyle;html=1;entryX=0.75;entryY=1;entryDx=0;entryDy=0;" edge="1" parent="1" source="DtydLyBDtzMeIutkfusV-5" target="DtydLyBDtzMeIutkfusV-1">
                    <mxGeometry relative="1" as="geometry"/>
                </mxCell>
                <mxCell id="DtydLyBDtzMeIutkfusV-5" value="max capacity" style="ellipse;whiteSpace=wrap;html=1;fillColor=#1D050B;" vertex="1" parent="1">
                    <mxGeometry x="520" y="350" width="120" height="80" as="geometry"/>
                </mxCell>
                <mxCell id="DtydLyBDtzMeIutkfusV-11" style="edgeStyle=orthogonalEdgeStyle;html=1;entryX=0.75;entryY=0;entryDx=0;entryDy=0;" edge="1" parent="1" source="DtydLyBDtzMeIutkfusV-6" target="DtydLyBDtzMeIutkfusV-1">
                    <mxGeometry relative="1" as="geometry"/>
                </mxCell>
                <mxCell id="DtydLyBDtzMeIutkfusV-6" value="Location" style="ellipse;whiteSpace=wrap;html=1;fillColor=#1D050B;" vertex="1" parent="1">
                    <mxGeometry x="520" y="60" width="120" height="80" as="geometry"/>
                </mxCell>
                <mxCell id="DtydLyBDtzMeIutkfusV-7" value="is open for enrollment ?" style="ellipse;whiteSpace=wrap;html=1;fillColor=#1D050B;" vertex="1" parent="1">
                    <mxGeometry x="670" y="220" width="120" height="80" as="geometry"/>
                </mxCell>
            </root>
        </mxGraphModel>
    </diagram>
    <diagram id="gO-DPcqH2aKcSSBv5_V3" name="Relationship">
        <mxGraphModel dx="1386" dy="560" grid="1" gridSize="10" guides="1" tooltips="1" connect="1" arrows="1" fold="1" page="1" pageScale="1" pageWidth="850" pageHeight="1100" math="0" shadow="0">
            <root>
                <mxCell id="0"/>
                <mxCell id="1" parent="0"/>
                <mxCell id="VCItKjobIZ3YWqQ0Oiub-10" style="edgeStyle=orthogonalEdgeStyle;html=1;entryX=0.5;entryY=0;entryDx=0;entryDy=0;" edge="1" parent="1" source="VCItKjobIZ3YWqQ0Oiub-2" target="VCItKjobIZ3YWqQ0Oiub-4">
                    <mxGeometry relative="1" as="geometry"/>
                </mxCell>
                <mxCell id="VCItKjobIZ3YWqQ0Oiub-11" style="edgeStyle=orthogonalEdgeStyle;html=1;entryX=0.5;entryY=1;entryDx=0;entryDy=0;" edge="1" parent="1" source="VCItKjobIZ3YWqQ0Oiub-2" target="VCItKjobIZ3YWqQ0Oiub-3">
                    <mxGeometry relative="1" as="geometry"/>
                </mxCell>
                <mxCell id="VCItKjobIZ3YWqQ0Oiub-12" style="edgeStyle=orthogonalEdgeStyle;html=1;entryX=0.5;entryY=1;entryDx=0;entryDy=0;" edge="1" parent="1" source="VCItKjobIZ3YWqQ0Oiub-2" target="VCItKjobIZ3YWqQ0Oiub-5">
                    <mxGeometry relative="1" as="geometry"/>
                </mxCell>
                <mxCell id="VCItKjobIZ3YWqQ0Oiub-2" value="Author" style="rounded=0;whiteSpace=wrap;html=1;fillColor=#1D050B;" vertex="1" parent="1">
                    <mxGeometry x="70" y="160" width="120" height="60" as="geometry"/>
                </mxCell>
                <mxCell id="VCItKjobIZ3YWqQ0Oiub-3" value="Author Name" style="ellipse;whiteSpace=wrap;html=1;fillColor=#1D050B;" vertex="1" parent="1">
                    <mxGeometry x="70" y="30" width="120" height="80" as="geometry"/>
                </mxCell>
                <mxCell id="VCItKjobIZ3YWqQ0Oiub-4" value="Field of Study" style="ellipse;whiteSpace=wrap;html=1;fillColor=#1D050B;" vertex="1" parent="1">
                    <mxGeometry x="70" y="310" width="120" height="80" as="geometry"/>
                </mxCell>
                <mxCell id="VCItKjobIZ3YWqQ0Oiub-13" style="edgeStyle=orthogonalEdgeStyle;html=1;entryX=0;entryY=0.5;entryDx=0;entryDy=0;" edge="1" parent="1" source="VCItKjobIZ3YWqQ0Oiub-5" target="VCItKjobIZ3YWqQ0Oiub-6">
                    <mxGeometry relative="1" as="geometry"/>
                </mxCell>
                <mxCell id="VCItKjobIZ3YWqQ0Oiub-5" value="writes" style="rhombus;whiteSpace=wrap;html=1;fillColor=#1D050B;rotation=90;" vertex="1" parent="1">
                    <mxGeometry x="260" y="150" width="80" height="80" as="geometry"/>
                </mxCell>
                <mxCell id="VCItKjobIZ3YWqQ0Oiub-14" style="edgeStyle=orthogonalEdgeStyle;html=1;entryX=0.5;entryY=1;entryDx=0;entryDy=0;" edge="1" parent="1" source="VCItKjobIZ3YWqQ0Oiub-6" target="VCItKjobIZ3YWqQ0Oiub-8">
                    <mxGeometry relative="1" as="geometry"/>
                </mxCell>
                <mxCell id="VCItKjobIZ3YWqQ0Oiub-15" style="edgeStyle=orthogonalEdgeStyle;html=1;entryX=0.5;entryY=0;entryDx=0;entryDy=0;" edge="1" parent="1" source="VCItKjobIZ3YWqQ0Oiub-6" target="VCItKjobIZ3YWqQ0Oiub-7">
                    <mxGeometry relative="1" as="geometry"/>
                </mxCell>
                <mxCell id="VCItKjobIZ3YWqQ0Oiub-6" value="Book" style="rounded=0;whiteSpace=wrap;html=1;fillColor=#1D050B;" vertex="1" parent="1">
                    <mxGeometry x="400" y="160" width="120" height="60" as="geometry"/>
                </mxCell>
                <mxCell id="VCItKjobIZ3YWqQ0Oiub-7" value="No of pages" style="ellipse;whiteSpace=wrap;html=1;fillColor=#1D050B;" vertex="1" parent="1">
                    <mxGeometry x="400" y="310" width="120" height="80" as="geometry"/>
                </mxCell>
                <mxCell id="VCItKjobIZ3YWqQ0Oiub-8" value="Book Title" style="ellipse;whiteSpace=wrap;html=1;fillColor=#1D050B;" vertex="1" parent="1">
                    <mxGeometry x="400" y="30" width="120" height="80" as="geometry"/>
                </mxCell>
            </root>
        </mxGraphModel>
    </diagram>
    <diagram id="8Lb6Jmo5ANRpIm6bCrbY" name="Music">
        <mxGraphModel dx="1386" dy="560" grid="1" gridSize="10" guides="1" tooltips="1" connect="1" arrows="1" fold="1" page="1" pageScale="1" pageWidth="850" pageHeight="1100" math="0" shadow="0">
            <root>
                <mxCell id="0"/>
                <mxCell id="1" parent="0"/>
                <mxCell id="Hcw4xnGATx1-Fi-pZLeM-1" value="Song" style="rounded=0;whiteSpace=wrap;html=1;fillColor=#1D050B;" vertex="1" parent="1">
                    <mxGeometry x="190" y="120" width="120" height="60" as="geometry"/>
                </mxCell>
                <mxCell id="Hcw4xnGATx1-Fi-pZLeM-2" value="Belongs to" style="rhombus;whiteSpace=wrap;html=1;fillColor=#1D050B;" vertex="1" parent="1">
                    <mxGeometry x="210" y="240" width="80" height="80" as="geometry"/>
                </mxCell>
                <mxCell id="Hcw4xnGATx1-Fi-pZLeM-3" value="Album" style="rounded=0;whiteSpace=wrap;html=1;fillColor=#1D050B;" vertex="1" parent="1">
                    <mxGeometry x="190" y="400" width="120" height="60" as="geometry"/>
                </mxCell>
                <mxCell id="Hcw4xnGATx1-Fi-pZLeM-4" value="Title" style="ellipse;whiteSpace=wrap;html=1;fillColor=#1D050B;" vertex="1" parent="1">
                    <mxGeometry x="20" y="110" width="120" height="80" as="geometry"/>
                </mxCell>
                <mxCell id="Hcw4xnGATx1-Fi-pZLeM-5" value="Title" style="ellipse;whiteSpace=wrap;html=1;fillColor=#1D050B;" vertex="1" parent="1">
                    <mxGeometry x="20" y="390" width="120" height="80" as="geometry"/>
                </mxCell>
                <mxCell id="Hcw4xnGATx1-Fi-pZLeM-6" value="Length" style="ellipse;whiteSpace=wrap;html=1;fillColor=#1D050B;" vertex="1" parent="1">
                    <mxGeometry x="190" width="120" height="80" as="geometry"/>
                </mxCell>
                <mxCell id="Hcw4xnGATx1-Fi-pZLeM-7" value="Written by" style="rhombus;whiteSpace=wrap;html=1;fillColor=#1D050B;" vertex="1" parent="1">
                    <mxGeometry x="380" y="110" width="80" height="80" as="geometry"/>
                </mxCell>
                <mxCell id="Hcw4xnGATx1-Fi-pZLeM-8" value="Artist" style="rounded=0;whiteSpace=wrap;html=1;fillColor=#1D050B;" vertex="1" parent="1">
                    <mxGeometry x="540" y="120" width="120" height="60" as="geometry"/>
                </mxCell>
                <mxCell id="Hcw4xnGATx1-Fi-pZLeM-9" value="Name" style="ellipse;whiteSpace=wrap;html=1;fillColor=#1D050B;" vertex="1" parent="1">
                    <mxGeometry x="540" y="10" width="120" height="80" as="geometry"/>
                </mxCell>
                <mxCell id="Hcw4xnGATx1-Fi-pZLeM-10" value="Bio" style="ellipse;whiteSpace=wrap;html=1;fillColor=#1D050B;" vertex="1" parent="1">
                    <mxGeometry x="720" y="110" width="120" height="80" as="geometry"/>
                </mxCell>
                <mxCell id="Hcw4xnGATx1-Fi-pZLeM-26" value="" style="endArrow=none;html=1;rounded=0;" edge="1" parent="1" source="Hcw4xnGATx1-Fi-pZLeM-5">
                    <mxGeometry relative="1" as="geometry">
                        <mxPoint x="140" y="430" as="sourcePoint"/>
                        <mxPoint x="190" y="430" as="targetPoint"/>
                    </mxGeometry>
                </mxCell>
                <mxCell id="Hcw4xnGATx1-Fi-pZLeM-27" value="" style="endArrow=none;html=1;rounded=0;entryX=0.5;entryY=0;entryDx=0;entryDy=0;" edge="1" parent="1" target="Hcw4xnGATx1-Fi-pZLeM-3">
                    <mxGeometry relative="1" as="geometry">
                        <mxPoint x="250" y="320" as="sourcePoint"/>
                        <mxPoint x="250" y="390" as="targetPoint"/>
                    </mxGeometry>
                </mxCell>
                <mxCell id="Hcw4xnGATx1-Fi-pZLeM-28" value="" style="endArrow=none;html=1;rounded=0;" edge="1" parent="1">
                    <mxGeometry relative="1" as="geometry">
                        <mxPoint x="249.5" y="180" as="sourcePoint"/>
                        <mxPoint x="249.5" y="240" as="targetPoint"/>
                    </mxGeometry>
                </mxCell>
            </root>
        </mxGraphModel>
    </diagram>
</mxfile>